<svg xmlns="http://www.w3.org/2000/svg" xmlns:xlink="http://www.w3.org/1999/xlink" width="48" zoomAndPan="magnify" viewBox="0 0 36 36.000001" height="48" preserveAspectRatio="xMidYMid meet" version="1.0"><defs><clipPath id="a76b331578"><path d="M 0.488281 0 L 35.511719 0 L 35.511719 35.027344 L 0.488281 35.027344 Z M 0.488281 0 " clip-rule="nonzero"/></clipPath><clipPath id="1a32098681"><path d="M 25 13 L 35.511719 13 L 35.511719 15 L 25 15 Z M 25 13 " clip-rule="nonzero"/></clipPath><clipPath id="1841ceea04"><path d="M 25 14 L 35.511719 14 L 35.511719 16 L 25 16 Z M 25 14 " clip-rule="nonzero"/></clipPath><clipPath id="24e510f276"><path d="M 14 0.0390625 L 22 0.0390625 L 22 1 L 14 1 Z M 14 0.0390625 " clip-rule="nonzero"/></clipPath><clipPath id="6ace7f4683"><path d="M 25 15 L 35.511719 15 L 35.511719 17 L 25 17 Z M 25 15 " clip-rule="nonzero"/></clipPath><clipPath id="c8ab729f38"><path d="M 25 16 L 35.511719 16 L 35.511719 18 L 25 18 Z M 25 16 " clip-rule="nonzero"/></clipPath><clipPath id="64f024a876"><path d="M 0.488281 13 L 13 13 L 13 15 L 0.488281 15 Z M 0.488281 13 " clip-rule="nonzero"/></clipPath><clipPath id="50d4150ed0"><path d="M 13 34 L 23 34 L 23 35.027344 L 13 35.027344 Z M 13 34 " clip-rule="nonzero"/></clipPath><clipPath id="60ab8e3bce"><path d="M 25 20 L 35.511719 20 L 35.511719 22 L 25 22 Z M 25 20 " clip-rule="nonzero"/></clipPath><clipPath id="05861549e5"><path d="M 25 18 L 35.511719 18 L 35.511719 20 L 25 20 Z M 25 18 " clip-rule="nonzero"/></clipPath><clipPath id="75f02f200f"><path d="M 25 17 L 35.511719 17 L 35.511719 19 L 25 19 Z M 25 17 " clip-rule="nonzero"/></clipPath><clipPath id="85f981f16f"><path d="M 25 19 L 35.511719 19 L 35.511719 21 L 25 21 Z M 25 19 " clip-rule="nonzero"/></clipPath><clipPath id="d0f1c590c0"><path d="M 0.488281 18 L 13 18 L 13 20 L 0.488281 20 Z M 0.488281 18 " clip-rule="nonzero"/></clipPath><clipPath id="6daea6cef0"><path d="M 0.488281 14 L 13 14 L 13 16 L 0.488281 16 Z M 0.488281 14 " clip-rule="nonzero"/></clipPath><clipPath id="15c1506866"><path d="M 0.488281 17 L 13 17 L 13 19 L 0.488281 19 Z M 0.488281 17 " clip-rule="nonzero"/></clipPath><clipPath id="9dc769f96f"><path d="M 0.488281 15 L 13 15 L 13 17 L 0.488281 17 Z M 0.488281 15 " clip-rule="nonzero"/></clipPath><clipPath id="0d16a124d4"><path d="M 0.488281 16 L 13 16 L 13 18 L 0.488281 18 Z M 0.488281 16 " clip-rule="nonzero"/></clipPath><clipPath id="aa8d3ebf99"><path d="M 0.488281 19 L 13 19 L 13 21 L 0.488281 21 Z M 0.488281 19 " clip-rule="nonzero"/></clipPath><clipPath id="266c7b0437"><path d="M 0.488281 20 L 13 20 L 13 22 L 0.488281 22 Z M 0.488281 20 " clip-rule="nonzero"/></clipPath></defs><g clip-path="url(#a76b331578)"><path fill="#ffffff" d="M 0.488281 0 L 35.511719 0 L 35.511719 35.027344 L 0.488281 35.027344 Z M 0.488281 0 " fill-opacity="1" fill-rule="nonzero"/><path fill="#9b4dff" d="M 0.488281 0 L 35.511719 0 L 35.511719 35.027344 L 0.488281 35.027344 Z M 0.488281 0 " fill-opacity="1" fill-rule="nonzero"/></g><path fill="#ff914d" d="M 25.664062 8.839844 L 33.199219 8.839844 C 33.113281 8.691406 33.023438 8.546875 32.933594 8.402344 L 25.664062 8.402344 L 25.664062 8.839844 " fill-opacity="1" fill-rule="nonzero"/><path fill="#ff914d" d="M 25.664062 6.746094 L 31.785156 6.746094 C 31.667969 6.597656 31.546875 6.449219 31.425781 6.304688 L 25.664062 6.304688 L 25.664062 6.746094 " fill-opacity="1" fill-rule="nonzero"/><path fill="#ff914d" d="M 25.664062 7.792969 L 32.546875 7.792969 C 32.445312 7.644531 32.34375 7.5 32.238281 7.351562 L 25.664062 7.351562 L 25.664062 7.792969 " fill-opacity="1" fill-rule="nonzero"/><path fill="#ff914d" d="M 25.664062 9.757812 L 25.664062 9.890625 L 33.753906 9.890625 C 33.679688 9.742188 33.605469 9.59375 33.53125 9.449219 L 25.664062 9.449219 L 25.664062 9.757812 " fill-opacity="1" fill-rule="nonzero"/><g clip-path="url(#1a32098681)"><path fill="#ff914d" d="M 25.664062 14.078125 L 35.171875 14.078125 C 35.140625 13.929688 35.109375 13.785156 35.078125 13.640625 L 25.664062 13.640625 L 25.664062 14.078125 " fill-opacity="1" fill-rule="nonzero"/></g><path fill="#ff914d" d="M 25.664062 10.9375 L 34.222656 10.9375 C 34.160156 10.789062 34.097656 10.640625 34.035156 10.496094 L 25.664062 10.496094 L 25.664062 10.9375 " fill-opacity="1" fill-rule="nonzero"/><path fill="#ff914d" d="M 25.664062 13.03125 L 34.925781 13.03125 C 34.886719 12.882812 34.84375 12.738281 34.800781 12.589844 L 25.664062 12.589844 L 25.664062 13.03125 " fill-opacity="1" fill-rule="nonzero"/><g clip-path="url(#1841ceea04)"><path fill="#ff914d" d="M 25.664062 15.125 L 35.347656 15.125 C 35.328125 14.980469 35.304688 14.832031 35.28125 14.6875 L 25.664062 14.6875 L 25.664062 15.125 " fill-opacity="1" fill-rule="nonzero"/></g><path fill="#ff914d" d="M 25.664062 11.984375 L 34.609375 11.984375 C 34.5625 11.835938 34.507812 11.691406 34.457031 11.542969 L 25.664062 11.542969 L 25.664062 11.984375 " fill-opacity="1" fill-rule="nonzero"/><path fill="#ff914d" d="M 24.742188 5.257812 L 5.527344 5.257812 C 5.386719 5.402344 5.246094 5.550781 5.109375 5.699219 L 23.632812 5.699219 L 24.742188 5.257812 " fill-opacity="1" fill-rule="nonzero"/><path fill="#ff914d" d="M 25.664062 5.699219 L 30.890625 5.699219 C 30.753906 5.550781 30.617188 5.402344 30.472656 5.257812 L 25.664062 5.257812 L 25.664062 5.699219 " fill-opacity="1" fill-rule="nonzero"/><path fill="#ff914d" d="M 22.101562 6.304688 L 4.574219 6.304688 C 4.453125 6.449219 4.332031 6.597656 4.214844 6.746094 L 20.992188 6.746094 L 22.101562 6.304688 " fill-opacity="1" fill-rule="nonzero"/><path fill="#ff914d" d="M 27.984375 3.164062 L 8.015625 3.164062 C 7.808594 3.304688 7.609375 3.453125 7.410156 3.601562 L 28.589844 3.601562 C 28.390625 3.453125 28.191406 3.304688 27.984375 3.164062 " fill-opacity="1" fill-rule="nonzero"/><path fill="#ff914d" d="M 29.347656 4.210938 L 6.652344 4.210938 C 6.484375 4.355469 6.320312 4.5 6.15625 4.652344 L 29.84375 4.652344 C 29.679688 4.5 29.515625 4.355469 29.34375 4.210938 " fill-opacity="1" fill-rule="nonzero"/><path fill="#ff914d" d="M 26.277344 2.117188 L 9.722656 2.117188 C 9.460938 2.253906 9.203125 2.402344 8.949219 2.554688 L 27.050781 2.554688 C 26.796875 2.402344 26.539062 2.253906 26.277344 2.117188 " fill-opacity="1" fill-rule="nonzero"/><g clip-path="url(#24e510f276)"><path fill="#ff914d" d="M 18 0.0390625 C 16.683594 0.0390625 15.402344 0.183594 14.167969 0.460938 L 21.832031 0.460938 C 20.597656 0.183594 19.316406 0.0390625 18 0.0390625 " fill-opacity="1" fill-rule="nonzero"/></g><path fill="#ff914d" d="M 23.925781 1.066406 L 12.074219 1.066406 C 11.699219 1.203125 11.332031 1.347656 10.96875 1.507812 L 25.03125 1.507812 C 24.667969 1.347656 24.300781 1.203125 23.925781 1.066406 " fill-opacity="1" fill-rule="nonzero"/><path fill="#ff914d" d="M 14.628906 18.269531 L 23.117188 18.269531 L 23.117188 17.828125 L 14.628906 17.828125 Z M 14.628906 18.269531 " fill-opacity="1" fill-rule="nonzero"/><path fill="#ff914d" d="M 14.628906 20.960938 L 14.628906 21.402344 L 18.082031 21.402344 C 18.15625 21.25 18.246094 21.101562 18.351562 20.960938 L 14.628906 20.960938 " fill-opacity="1" fill-rule="nonzero"/><path fill="#ff914d" d="M 14.628906 22.007812 L 14.628906 22.449219 L 17.8125 22.449219 C 17.820312 22.300781 17.839844 22.152344 17.867188 22.007812 L 14.628906 22.007812 " fill-opacity="1" fill-rule="nonzero"/><path fill="#ff914d" d="M 14.628906 23.058594 L 14.628906 23.496094 L 18.003906 23.496094 C 17.945312 23.355469 17.898438 23.207031 17.867188 23.058594 L 14.628906 23.058594 " fill-opacity="1" fill-rule="nonzero"/><g clip-path="url(#6ace7f4683)"><path fill="#ff914d" d="M 25.664062 16.171875 L 35.460938 16.171875 C 35.449219 16.027344 35.4375 15.878906 35.421875 15.734375 L 25.664062 15.734375 L 25.664062 16.171875 " fill-opacity="1" fill-rule="nonzero"/></g><path fill="#ff914d" d="M 14.628906 19.914062 L 14.628906 20.355469 L 18.941406 20.355469 C 19.148438 20.1875 19.378906 20.039062 19.628906 19.914062 L 14.628906 19.914062 " fill-opacity="1" fill-rule="nonzero"/><path fill="#ff914d" d="M 21.039062 25.589844 C 20.527344 25.519531 20.046875 25.367188 19.625 25.152344 L 14.628906 25.152344 L 14.628906 25.390625 L 14.625 25.390625 C 14.628906 25.425781 14.628906 25.464844 14.628906 25.503906 C 14.628906 25.535156 14.628906 25.5625 14.628906 25.589844 L 21.039062 25.589844 " fill-opacity="1" fill-rule="nonzero"/><g clip-path="url(#c8ab729f38)"><path fill="#ff914d" d="M 25.664062 17.222656 L 35.511719 17.222656 C 35.507812 17.074219 35.503906 16.929688 35.5 16.78125 L 25.664062 16.78125 L 25.664062 17.222656 " fill-opacity="1" fill-rule="nonzero"/></g><path fill="#ff914d" d="M 14.628906 24.542969 L 18.746094 24.542969 C 18.597656 24.40625 18.464844 24.261719 18.351562 24.105469 L 14.628906 24.105469 L 14.628906 24.542969 " fill-opacity="1" fill-rule="nonzero"/><path fill="#ff914d" d="M 14.628906 19.308594 L 23.117188 19.308594 L 23.117188 18.867188 L 14.628906 18.867188 Z M 14.628906 19.308594 " fill-opacity="1" fill-rule="nonzero"/><path fill="#ff914d" d="M 23.117188 13.03125 L 23.117188 12.589844 L 18.90625 12.589844 L 17.855469 13.03125 L 23.117188 13.03125 " fill-opacity="1" fill-rule="nonzero"/><path fill="#ff914d" d="M 14.628906 15.125 L 23.117188 15.125 L 23.117188 14.6875 L 14.628906 14.6875 Z M 14.628906 15.125 " fill-opacity="1" fill-rule="nonzero"/><path fill="#ff914d" d="M 23.117188 14.078125 L 23.117188 13.640625 L 16.40625 13.640625 L 15.359375 14.078125 L 23.117188 14.078125 " fill-opacity="1" fill-rule="nonzero"/><path fill="#ff914d" d="M 14.628906 16.171875 L 23.117188 16.171875 L 23.117188 15.734375 L 14.628906 15.734375 Z M 14.628906 16.171875 " fill-opacity="1" fill-rule="nonzero"/><path fill="#ff914d" d="M 23.117188 11.984375 L 23.117188 11.542969 L 21.40625 11.542969 L 20.355469 11.984375 L 23.117188 11.984375 " fill-opacity="1" fill-rule="nonzero"/><path fill="#ff914d" d="M 14.628906 17.222656 L 23.117188 17.222656 L 23.117188 16.78125 L 14.628906 16.78125 Z M 14.628906 17.222656 " fill-opacity="1" fill-rule="nonzero"/><path fill="#ff914d" d="M 23.117188 10.9375 L 23.117188 10.824219 L 22.855469 10.9375 L 23.117188 10.9375 " fill-opacity="1" fill-rule="nonzero"/><path fill="#ff914d" d="M 19.457031 7.351562 L 3.761719 7.351562 C 3.65625 7.5 3.554688 7.644531 3.453125 7.792969 L 18.347656 7.792969 L 19.457031 7.351562 " fill-opacity="1" fill-rule="nonzero"/><g clip-path="url(#64f024a876)"><path fill="#ff914d" d="M 12.082031 13.640625 L 0.921875 13.640625 C 0.890625 13.785156 0.859375 13.929688 0.828125 14.078125 L 12.082031 14.078125 L 12.082031 13.640625 " fill-opacity="1" fill-rule="nonzero"/></g><path fill="#ff914d" d="M 6.570312 30.832031 L 29.429688 30.832031 C 29.59375 30.6875 29.757812 30.539062 29.917969 30.390625 L 6.078125 30.390625 C 6.242188 30.539062 6.40625 30.6875 6.574219 30.832031 " fill-opacity="1" fill-rule="nonzero"/><g clip-path="url(#50d4150ed0)"><path fill="#ff914d" d="M 16.65625 35.019531 L 19.34375 35.019531 C 20.296875 34.949219 21.230469 34.800781 22.132812 34.582031 L 13.867188 34.582031 C 14.769531 34.800781 15.703125 34.949219 16.65625 35.019531 " fill-opacity="1" fill-rule="nonzero"/></g><path fill="#ff914d" d="M 5.457031 29.78125 L 30.542969 29.78125 C 30.683594 29.636719 30.820312 29.492188 30.957031 29.34375 L 5.042969 29.34375 C 5.179688 29.492188 5.316406 29.636719 5.457031 29.78125 " fill-opacity="1" fill-rule="nonzero"/><path fill="#ff914d" d="M 13.496094 27.6875 L 32.289062 27.6875 C 32.394531 27.542969 32.492188 27.394531 32.59375 27.246094 L 13.953125 27.246094 C 13.820312 27.40625 13.664062 27.550781 13.496094 27.6875 " fill-opacity="1" fill-rule="nonzero"/><path fill="#ff914d" d="M 11.882812 33.972656 L 24.117188 33.972656 C 24.480469 33.835938 24.835938 33.691406 25.1875 33.53125 L 10.8125 33.53125 C 11.164062 33.691406 11.519531 33.835938 11.882812 33.972656 " fill-opacity="1" fill-rule="nonzero"/><path fill="#ff914d" d="M 14.359375 26.640625 L 32.980469 26.640625 C 33.066406 26.492188 33.152344 26.347656 33.238281 26.199219 L 14.53125 26.199219 C 14.488281 26.351562 14.429688 26.496094 14.359375 26.640625 " fill-opacity="1" fill-rule="nonzero"/><path fill="#ff914d" d="M 9.59375 32.925781 L 26.40625 32.925781 C 26.664062 32.785156 26.914062 32.636719 27.164062 32.484375 L 8.835938 32.484375 C 9.082031 32.636719 9.335938 32.785156 9.59375 32.925781 " fill-opacity="1" fill-rule="nonzero"/><path fill="#ff914d" d="M 7.914062 31.878906 L 28.085938 31.878906 C 28.289062 31.734375 28.488281 31.589844 28.683594 31.4375 L 7.316406 31.4375 C 7.511719 31.589844 7.710938 31.734375 7.914062 31.878906 " fill-opacity="1" fill-rule="nonzero"/><path fill="#ff914d" d="M 10.703125 28.613281 C 10.085938 28.613281 9.5 28.496094 8.976562 28.292969 L 4.160156 28.292969 C 4.277344 28.445312 4.394531 28.589844 4.515625 28.734375 L 31.484375 28.734375 C 31.605469 28.589844 31.722656 28.445312 31.839844 28.292969 L 12.429688 28.292969 C 11.910156 28.496094 11.324219 28.613281 10.703125 28.613281 " fill-opacity="1" fill-rule="nonzero"/><path fill="#ff914d" d="M 22.433594 25.589844 L 33.566406 25.589844 C 33.640625 25.445312 33.714844 25.300781 33.789062 25.152344 L 23.851562 25.152344 C 23.425781 25.367188 22.949219 25.519531 22.433594 25.589844 " fill-opacity="1" fill-rule="nonzero"/><g clip-path="url(#60ab8e3bce)"><path fill="#ff914d" d="M 25.664062 21.402344 L 35.09375 21.402344 C 35.125 21.253906 35.15625 21.109375 35.183594 20.960938 L 25.664062 20.960938 L 25.664062 21.402344 " fill-opacity="1" fill-rule="nonzero"/></g><g clip-path="url(#05861549e5)"><path fill="#ff914d" d="M 25.664062 19.308594 L 35.429688 19.308594 C 35.445312 19.160156 35.457031 19.015625 35.46875 18.867188 L 25.664062 18.867188 L 25.664062 19.308594 " fill-opacity="1" fill-rule="nonzero"/></g><g clip-path="url(#75f02f200f)"><path fill="#ff914d" d="M 25.664062 17.828125 L 25.664062 18.269531 L 35.5 18.269531 C 35.507812 18.125 35.511719 17.976562 35.511719 17.828125 L 25.664062 17.828125 " fill-opacity="1" fill-rule="nonzero"/></g><g clip-path="url(#85f981f16f)"><path fill="#ff914d" d="M 25.664062 20.355469 L 35.292969 20.355469 C 35.316406 20.207031 35.339844 20.0625 35.359375 19.914062 L 25.664062 19.914062 L 25.664062 20.355469 " fill-opacity="1" fill-rule="nonzero"/></g><path fill="#ff914d" d="M 25.664062 22.417969 L 25.660156 22.417969 C 25.660156 22.429688 25.660156 22.4375 25.660156 22.449219 L 34.824219 22.449219 C 34.867188 22.304688 34.90625 22.15625 34.945312 22.007812 L 25.664062 22.007812 L 25.664062 22.417969 " fill-opacity="1" fill-rule="nonzero"/><path fill="#ff914d" d="M 24.730469 24.542969 L 34.066406 24.542969 C 34.128906 24.398438 34.191406 24.253906 34.25 24.105469 L 25.125 24.105469 C 25.007812 24.261719 24.878906 24.40625 24.730469 24.542969 " fill-opacity="1" fill-rule="nonzero"/><path fill="#ff914d" d="M 25.46875 23.496094 L 34.484375 23.496094 C 34.535156 23.351562 34.585938 23.203125 34.632812 23.058594 L 25.605469 23.058594 C 25.574219 23.207031 25.527344 23.355469 25.46875 23.496094 " fill-opacity="1" fill-rule="nonzero"/><g clip-path="url(#d0f1c590c0)"><path fill="#ff914d" d="M 12.082031 18.867188 L 0.53125 18.867188 C 0.542969 19.015625 0.554688 19.160156 0.570312 19.308594 L 12.082031 19.308594 L 12.082031 18.867188 " fill-opacity="1" fill-rule="nonzero"/></g><g clip-path="url(#6daea6cef0)"><path fill="#ff914d" d="M 12.082031 14.6875 L 0.71875 14.6875 C 0.695312 14.832031 0.671875 14.980469 0.652344 15.125 L 12.082031 15.125 L 12.082031 14.6875 " fill-opacity="1" fill-rule="nonzero"/></g><g clip-path="url(#15c1506866)"><path fill="#ff914d" d="M 12.082031 17.828125 L 0.488281 17.828125 C 0.488281 17.976562 0.492188 18.125 0.5 18.269531 L 12.082031 18.269531 L 12.082031 17.828125 " fill-opacity="1" fill-rule="nonzero"/></g><g clip-path="url(#9dc769f96f)"><path fill="#ff914d" d="M 12.082031 15.734375 L 0.578125 15.734375 C 0.5625 15.878906 0.550781 16.027344 0.539062 16.171875 L 12.082031 16.171875 L 12.082031 15.734375 " fill-opacity="1" fill-rule="nonzero"/></g><g clip-path="url(#0d16a124d4)"><path fill="#ff914d" d="M 12.082031 16.78125 L 0.5 16.78125 C 0.496094 16.929688 0.492188 17.074219 0.488281 17.222656 L 12.082031 17.222656 L 12.082031 16.78125 " fill-opacity="1" fill-rule="nonzero"/></g><path fill="#ff914d" d="M 12.082031 12.589844 L 1.199219 12.589844 C 1.15625 12.738281 1.113281 12.882812 1.074219 13.03125 L 12.082031 13.03125 L 12.082031 12.589844 " fill-opacity="1" fill-rule="nonzero"/><path fill="#ff914d" d="M 12.082031 11.542969 L 1.542969 11.542969 C 1.488281 11.691406 1.4375 11.835938 1.390625 11.984375 L 12.082031 11.984375 L 12.082031 11.542969 " fill-opacity="1" fill-rule="nonzero"/><path fill="#ff914d" d="M 14.171875 9.449219 L 2.46875 9.449219 C 2.394531 9.59375 2.320312 9.742188 2.246094 9.890625 L 13.0625 9.890625 L 14.171875 9.449219 " fill-opacity="1" fill-rule="nonzero"/><path fill="#ff914d" d="M 12.082031 10.496094 L 1.964844 10.496094 C 1.902344 10.640625 1.839844 10.789062 1.777344 10.9375 L 12.082031 10.9375 L 12.082031 10.496094 " fill-opacity="1" fill-rule="nonzero"/><path fill="#ff914d" d="M 16.816406 8.402344 L 3.066406 8.402344 C 2.976562 8.546875 2.886719 8.691406 2.800781 8.839844 L 15.703125 8.839844 L 16.816406 8.402344 " fill-opacity="1" fill-rule="nonzero"/><path fill="#ff914d" d="M 8.285156 23.058594 L 1.367188 23.058594 C 1.414062 23.203125 1.464844 23.351562 1.519531 23.496094 L 7.707031 23.496094 C 7.882812 23.335938 8.074219 23.1875 8.285156 23.058594 " fill-opacity="1" fill-rule="nonzero"/><path fill="#ff914d" d="M 7.199219 24.105469 L 1.75 24.105469 C 1.808594 24.253906 1.871094 24.398438 1.933594 24.542969 L 6.96875 24.542969 C 7.03125 24.394531 7.109375 24.246094 7.199219 24.105469 " fill-opacity="1" fill-rule="nonzero"/><path fill="#ff914d" d="M 6.777344 25.503906 C 6.777344 25.386719 6.789062 25.269531 6.804688 25.152344 L 2.210938 25.152344 C 2.285156 25.300781 2.359375 25.445312 2.433594 25.589844 L 6.78125 25.589844 C 6.78125 25.5625 6.777344 25.535156 6.777344 25.503906 " fill-opacity="1" fill-rule="nonzero"/><path fill="#ff914d" d="M 7.453125 27.246094 L 3.40625 27.246094 C 3.507812 27.394531 3.605469 27.542969 3.710938 27.6875 L 7.910156 27.6875 C 7.742188 27.550781 7.589844 27.40625 7.453125 27.246094 " fill-opacity="1" fill-rule="nonzero"/><path fill="#ff914d" d="M 6.878906 26.199219 L 2.761719 26.199219 C 2.847656 26.347656 2.933594 26.492188 3.019531 26.640625 L 7.050781 26.640625 C 6.980469 26.496094 6.921875 26.351562 6.878906 26.199219 " fill-opacity="1" fill-rule="nonzero"/><g clip-path="url(#aa8d3ebf99)"><path fill="#ff914d" d="M 12.082031 19.914062 L 0.640625 19.914062 C 0.660156 20.0625 0.683594 20.207031 0.707031 20.355469 L 12.082031 20.355469 L 12.082031 19.914062 " fill-opacity="1" fill-rule="nonzero"/></g><path fill="#ff914d" d="M 10.703125 22.398438 C 10.949219 22.398438 11.1875 22.414062 11.421875 22.449219 L 12.082031 22.449219 L 12.082031 22.007812 L 1.054688 22.007812 C 1.09375 22.15625 1.136719 22.304688 1.175781 22.449219 L 9.988281 22.449219 C 10.21875 22.414062 10.460938 22.398438 10.703125 22.398438 " fill-opacity="1" fill-rule="nonzero"/><g clip-path="url(#266c7b0437)"><path fill="#ff914d" d="M 12.082031 20.960938 L 0.816406 20.960938 C 0.84375 21.109375 0.875 21.253906 0.90625 21.402344 L 12.082031 21.402344 L 12.082031 20.960938 " fill-opacity="1" fill-rule="nonzero"/></g></svg>