<svg width="39" height="31" viewBox="0 0 39 31" fill="currentColor" xmlns="http://www.w3.org/2000/svg">
<path fill-rule="evenodd" clip-rule="evenodd" d="M0.59375 29.25C0.59375 28.7942 0.774832 28.357 1.09716 28.0347C1.41949 27.7123 1.85666 27.5312 2.3125 27.5312H36.6875C37.1433 27.5312 37.5805 27.7123 37.9028 28.0347C38.2252 28.357 38.4062 28.7942 38.4062 29.25C38.4062 29.7058 38.2252 30.143 37.9028 30.4653C37.5805 30.7877 37.1433 30.9688 36.6875 30.9688H2.3125C1.85666 30.9688 1.41949 30.7877 1.09716 30.4653C0.774832 30.143 0.59375 29.7058 0.59375 29.25ZM0.59375 15.5C0.59375 15.0442 0.774832 14.607 1.09716 14.2847C1.41949 13.9623 1.85666 13.7812 2.3125 13.7812H36.6875C37.1433 13.7812 37.5805 13.9623 37.9028 14.2847C38.2252 14.607 38.4062 15.0442 38.4062 15.5C38.4062 15.9558 38.2252 16.393 37.9028 16.7153C37.5805 17.0377 37.1433 17.2188 36.6875 17.2188H2.3125C1.85666 17.2188 1.41949 17.0377 1.09716 16.7153C0.774832 16.393 0.59375 15.9558 0.59375 15.5ZM0.59375 1.75C0.59375 1.29416 0.774832 0.856989 1.09716 0.534661C1.41949 0.212332 1.85666 0.03125 2.3125 0.03125H36.6875C37.1433 0.03125 37.5805 0.212332 37.9028 0.534661C38.2252 0.856989 38.4062 1.29416 38.4062 1.75C38.4062 2.20584 38.2252 2.64301 37.9028 2.96534C37.5805 3.28767 37.1433 3.46875 36.6875 3.46875H2.3125C1.85666 3.46875 1.41949 3.28767 1.09716 2.96534C0.774832 2.64301 0.59375 2.20584 0.59375 1.75Z" fill="#E5E5E5"/>
</svg>
