<svg width="50" height="50" viewBox="0 0 50 50" fill="none" xmlns="http://www.w3.org/2000/svg">
<path d="M45 35.3125C44.5833 37.5 42.8125 39.1667 40.625 39.4792C37.1875 40 31.4583 40.625 25 40.625C18.6458 40.625 12.9167 40 9.375 39.4792C7.1875 39.1667 5.41667 37.5 5 35.3125C4.58333 32.9167 4.16667 29.375 4.16667 25C4.16667 20.625 4.58333 17.0833 5 14.6875C5.41667 12.5 7.1875 10.8333 9.375 10.5208C12.8125 10 18.5417 9.375 25 9.375C31.4583 9.375 37.0833 10 40.625 10.5208C42.8125 10.8333 44.5833 12.5 45 14.6875C45.4167 17.0833 45.9375 20.625 45.9375 25C45.8333 29.375 45.4167 32.9167 45 35.3125Z" fill="#FF3D00"/>
<path d="M20.8333 32.2917V17.7084L33.3333 25L20.8333 32.2917Z" fill="white"/>
</svg>
