<svg width="50" height="50" viewBox="0 0 50 50" fill="none" xmlns="http://www.w3.org/2000/svg">
<path d="M25 0C11.25 0 0 11.25 0 25C0 38.75 11.25 50 25 50C38.75 50 50 38.75 50 25C50 11.25 38.875 0 25 0ZM34.375 36.625C28.5 33 21.125 32.248 12.3729 34.248C11.5021 34.502 10.75 33.875 10.5 33.125C10.25 32.248 10.875 31.5 11.625 31.25C21.125 29.123 29.375 30 35.875 34C36.75 34.375 36.8728 35.373 36.502 36.125C36.002 36.873 35.127 37.125 34.375 36.625ZM36.8728 29.875C30.125 25.75 19.875 24.5 12 27C11.0021 27.25 9.87499 26.75 9.62499 25.75C9.37499 24.75 9.87499 23.623 10.875 23.373C20 20.625 31.25 22.002 39 26.75C39.752 27.127 40.125 28.375 39.502 29.25C38.875 30.125 37.75 30.5 36.8728 29.875ZM10.75 19.3771C9.49999 19.75 8.24999 19 7.87499 17.875C7.49999 16.6229 8.24999 15.375 9.37499 14.9979C18.25 12.3729 32.875 12.8729 42.127 18.375C43.25 19 43.625 20.5 43 21.625C42.377 22.502 40.875 22.873 39.752 22.25C31.75 17.5 18.375 17 10.75 19.3771Z" fill="black"/>
</svg>
