<svg width="100" height="100" viewBox="0 0 100 100" fill="none" xmlns="http://www.w3.org/2000/svg">
<path d="M33.3333 87.5V79.1667H41.6667V70.8333H16.6667C14.375 70.8333 12.4132 70.0174 10.7812 68.3854C9.1493 66.7535 8.33333 64.7917 8.33333 62.5V20.8333C8.33333 18.5417 9.1493 16.5799 10.7812 14.9479C12.4132 13.316 14.375 12.5 16.6667 12.5H83.3333C85.625 12.5 87.5868 13.316 89.2187 14.9479C90.8507 16.5799 91.6667 18.5417 91.6667 20.8333V62.5C91.6667 64.7917 90.8507 66.7535 89.2187 68.3854C87.5868 70.0174 85.625 70.8333 83.3333 70.8333H58.3333V79.1667H66.6667V87.5H33.3333ZM16.6667 62.5H83.3333V20.8333H16.6667V62.5Z" fill="#E5E5E5"/>
</svg>
