<svg width="100" height="100" viewBox="0 0 100 100" fill="none" xmlns="http://www.w3.org/2000/svg">
<path d="M8.33333 77.6667C6.04167 77.6667 4.07986 76.8507 2.44792 75.2188C0.815972 73.5868 0 71.625 0 69.3333V19.3333C0 17.0417 0.815972 15.0799 2.44792 13.4479C4.07986 11.816 6.04167 11 8.33333 11H83.3333C85.625 11 87.5868 11.816 89.2188 13.4479C90.8507 15.0799 91.6667 17.0417 91.6667 19.3333V69.3333C91.6667 71.625 90.8507 73.5868 89.2188 75.2188C87.5868 76.8507 85.625 77.6667 83.3333 77.6667H8.33333ZM12.5 19.3333H8.33333V69.3333H12.5V19.3333ZM20.8333 69.3333H70.8333V19.3333H20.8333V69.3333ZM79.1667 19.3333V69.3333H83.3333V19.3333H79.1667Z" fill="#E5E5E5"/>
</svg>
