<svg width="100" height="100" viewBox="0 0 100 100" fill="none" xmlns="http://www.w3.org/2000/svg">
<path d="M29.1667 95.8333C26.875 95.8333 24.9132 95.0173 23.2813 93.3854C21.6493 91.7534 20.8333 89.7916 20.8333 87.5V12.5C20.8333 10.2083 21.6493 8.24649 23.2813 6.61454C24.9132 4.9826 26.875 4.16663 29.1667 4.16663H70.8333C73.125 4.16663 75.0868 4.9826 76.7188 6.61454C78.3507 8.24649 79.1667 10.2083 79.1667 12.5V87.5C79.1667 89.7916 78.3507 91.7534 76.7188 93.3854C75.0868 95.0173 73.125 95.8333 70.8333 95.8333H29.1667ZM29.1667 83.3333V87.5H70.8333V83.3333H29.1667ZM29.1667 75H70.8333V25H29.1667V75ZM29.1667 16.6666H70.8333V12.5H29.1667V16.6666Z" fill="#E5E5E5"/>
</svg>
